<svg viewBox="0 0 18.79 4.23" xmlns="http://www.w3.org/2000/svg"><path style="line-height:1.25;-inkscape-font-specification:Calibri" d="M3.16 2.01q0 .54-.13.94-.14.4-.4.66-.27.26-.65.4-.38.12-.9.12H.2q-.07 0-.14-.05Q0 4.03 0 3.91V.24Q0 .12.06.07.13.02.2.02h.93q.54 0 .9.14.38.14.62.4.25.25.38.62t.13.83m-.57.03q0-.34-.09-.62-.08-.3-.26-.5T1.8.59 1.1.47H.55v3.2h.56q.4 0 .66-.1.27-.1.45-.3.19-.2.27-.5.1-.31.1-.73m3.7 1.87V4l-.03.07-.03.04-.05.01H4.21q-.08 0-.14-.05T4 3.91V.24q0-.12.07-.17.06-.05.14-.05h1.95l.04.01q.03.01.04.04l.02.08v.2q0 .04-.02.07-.01.03-.04.04l-.04.01h-1.6v1.3h1.37l.04.01q.03.01.04.04t.02.07v.2q0 .04-.02.07l-.04.04H4.55v1.48h1.63l.05.01.03.04.03.07zm3.03-.02L9.3 4q0 .04-.02.07l-.04.05-.05.01H7.4q-.08 0-.14-.05t-.07-.17V.1q0-.03.02-.05 0-.02.04-.03L7.33 0h.13l.13.01q.05 0 .08.02.03 0 .05.03v3.6H9.2l.05.01.04.05.02.07zm2.89.02V4l-.03.07-.04.04-.04.01h-1.98q-.07 0-.14-.05-.06-.05-.06-.17V.24q0-.12.06-.17.07-.05.14-.05h1.95l.05.01.03.04q.02.03.02.08l.01.1v.1l-.03.07q0 .03-.03.04l-.05.01h-1.6v1.3h1.38l.04.01.03.04q.02.02.03.07v.2l-.03.07q0 .02-.03.04h-1.42v1.48h1.63l.04.01.04.04.02.07zM15.67.25v.1q0 .05-.02.08l-.04.04-.04.01H14.4v3.57l-.01.04-.05.04-.08.01-.13.01H14l-.09-.02-.04-.04-.02-.04V.48H12.7l-.05-.01-.03-.04-.03-.07V.15l.03-.08.03-.04.05-.01h2.86l.04.01.04.04.02.08zm2.89 3.66V4l-.03.07-.04.04-.04.01h-1.98q-.07 0-.14-.05-.06-.05-.06-.17V.24q0-.12.06-.17.07-.05.14-.05h1.95l.05.01.03.04q.02.03.02.08l.01.1v.1l-.03.07q0 .03-.03.04l-.05.01h-1.6v1.3h1.38l.04.01.03.04q.02.02.03.07v.2l-.03.07q0 .02-.03.04h-1.42v1.48h1.63l.04.01.04.04.02.07z" aria-label="DELETE" font-size="6.51" font-family="Calibri"/></svg>