<svg viewBox="0 0 23.548 4.233" xmlns="http://www.w3.org/2000/svg"><path style="line-height:1.25;-inkscape-font-specification:Calibri" d="M3.677 2.069q0 .499-.117.9-.118.4-.353.683-.232.28-.585.432-.353.15-.823.15-.464 0-.804-.137-.337-.14-.56-.404-.219-.264-.327-.655Q0 2.648 0 2.138q0-.485.118-.883Q.235.858.47.582q.236-.28.588-.43Q1.411 0 1.881 0q.455 0 .792.137.337.136.56.4.225.26.333.648.111.385.111.884m-.575.038q0-.35-.064-.648-.06-.302-.206-.521Q2.689.715 2.447.59 2.206.467 1.85.467t-.598.134-.394.356q-.15.222-.216.52-.064.296-.064.624 0 .362.06.667.061.305.204.528.143.22.382.343.241.12.603.12.36 0 .604-.133.245-.133.394-.359.15-.229.213-.527.064-.3.064-.633m3.966-.842q0 .308-.101.556t-.293.423q-.187.175-.464.27-.273.095-.655.095h-.467V4.09q0 .026-.016.045-.012.019-.044.032-.029.01-.083.015-.05.01-.13.01t-.134-.01q-.05-.006-.082-.015-.032-.013-.045-.032t-.012-.045V.296q0-.128.066-.182.067-.054.15-.054h.88q.134 0 .254.013.124.01.29.048.168.035.34.136.174.099.295.245t.185.34q.066.19.066.423m-.575.044q0-.25-.095-.42-.092-.168-.232-.25Q6.029.556 5.88.534 5.733.512 5.594.512h-.506v1.65h.493q.248 0 .41-.064.165-.064.276-.175.112-.115.169-.27.057-.16.057-.344m3.96-1.013q0 .06-.006.104-.007.045-.023.074-.012.025-.035.038-.019.012-.044.012H9.188V4.09q0 .026-.013.045t-.044.032q-.032.01-.086.015-.05.01-.13.01-.076 0-.13-.01-.055-.006-.086-.015-.032-.013-.045-.032t-.013-.045V.524H7.485q-.026 0-.048-.012-.02-.013-.032-.038Q7.392.444 7.383.4 7.377.356 7.377.296T7.383.19q.01-.048.022-.077.013-.028.032-.04.022-.014.048-.014h2.86q.025 0 .044.013.023.013.035.041.016.029.023.077.006.044.006.105m1.141 3.794q0 .026-.013.045t-.044.032q-.032.01-.086.015-.05.01-.13.01-.077 0-.13-.01-.055-.006-.086-.015-.032-.013-.045-.032t-.013-.045V.143q0-.025.013-.044.016-.02.048-.03.035-.012.086-.018.054-.01.127-.01.08 0 .13.01.054.006.086.019.032.01.044.029.013.019.013.044zm4.538-2.021q0 .499-.117.9-.118.4-.353.683-.232.28-.585.432-.352.15-.823.15-.464 0-.804-.137-.337-.14-.56-.404-.219-.264-.327-.655-.108-.39-.108-.9 0-.485.118-.883.117-.397.353-.673.235-.28.588-.43.352-.152.823-.152.454 0 .791.137.337.136.56.4.225.26.333.648.111.385.111.884m-.575.038q0-.35-.063-.648-.06-.302-.207-.521-.143-.223-.385-.347-.241-.124-.597-.124T13.707.6t-.394.356q-.149.222-.216.52-.063.296-.063.624 0 .362.06.667t.204.528q.143.22.38.343.242.12.605.12.359 0 .604-.133.244-.133.394-.359.15-.229.213-.527.063-.3.063-.633m4.548 1.84q0 .064-.022.108-.02.045-.054.073-.032.03-.073.042-.042.012-.083.012h-.175q-.082 0-.146-.015-.06-.02-.117-.064-.054-.048-.112-.127-.054-.08-.12-.204l-1.297-2.339q-.102-.18-.207-.378-.101-.2-.19-.388h-.007q.007.23.01.468t.003.473V4.09q0 .023-.013.045-.013.019-.044.032-.029.01-.08.015-.047.01-.124.01-.076 0-.127-.01-.048-.006-.076-.015-.029-.013-.041-.032-.013-.022-.013-.045V.296q0-.128.07-.182t.152-.054h.261q.092 0 .153.016.063.016.11.054.052.035.096.102.048.064.102.162l.998 1.805.178.324q.086.156.165.309.08.152.156.302.08.146.155.295h.004q-.007-.25-.01-.521V.153q0-.023.013-.042t.04-.031q.032-.015.08-.022.05-.006.13-.006.07 0 .12.006.052.007.08.022.029.013.042.032.012.02.012.042zm3.302-.928q0 .29-.108.515-.105.226-.295.385-.188.155-.445.235-.255.08-.55.08-.207 0-.385-.036-.174-.035-.314-.085-.137-.051-.232-.105-.092-.054-.13-.092-.036-.039-.055-.096-.016-.06-.016-.159 0-.07.007-.114.006-.048.019-.076.013-.029.032-.039.019-.012.044-.012.045 0 .124.054.083.054.21.117.127.064.305.121.181.054.416.054.178 0 .325-.048.149-.047.254-.133.108-.089.165-.216t.057-.29q0-.174-.08-.298-.079-.124-.209-.216-.13-.096-.299-.172-.165-.08-.34-.159-.175-.082-.34-.18-.165-.1-.295-.233t-.213-.311q-.08-.182-.08-.433 0-.257.092-.457.096-.204.26-.34.17-.137.398-.207.232-.073.5-.073.136 0 .273.025.14.023.26.064.124.038.22.089.095.048.123.08.032.028.042.047.01.016.016.045.006.025.01.063.002.038.002.099 0 .057-.006.101-.003.045-.013.077-.01.028-.028.044-.016.013-.039.013-.035 0-.11-.045-.074-.044-.182-.098-.108-.057-.257-.102-.147-.048-.33-.048-.173 0-.3.048-.127.045-.21.12-.082.077-.123.182-.042.105-.042.223 0 .171.08.295t.21.22q.133.095.301.174l.344.162q.174.08.343.178.168.096.299.23.133.13.213.31.082.179.082.423" aria-label="OPTIONS" font-size="6.509" font-family="Calibri"/></svg>