<svg viewBox="0 0 15.61 4.23" xmlns="http://www.w3.org/2000/svg"><path style="line-height:1.25;-inkscape-font-specification:Calibri" d="M2.53 1.26q0 .3-.1.55t-.3.42q-.18.18-.46.27-.27.1-.66.1H.55v1.48q0 .03-.02.05l-.04.03-.09.01-.13.01H.14l-.08-.02L0 4.13V.28Q0 .17.07.1.13.05.22.05h.88l.25.01q.12.01.29.05t.34.14.3.24.18.34q.07.2.07.43m-.58.04q0-.25-.1-.42-.09-.17-.23-.25-.13-.08-.28-.1T1.05.5h-.5v1.65h.49q.25 0 .4-.06.17-.07.29-.18.1-.11.16-.27t.06-.34m4.01 2.67q.03.07.03.11 0 .05-.02.07l-.09.03h-.32q-.05 0-.08-.02-.03 0-.05-.03l-.02-.05-.36-1h-1.7l-.34 1-.03.04-.05.04-.08.02h-.3q-.06-.01-.08-.04t-.02-.06.03-.11L3.86.15q0-.04.03-.06l.06-.04.1-.01h.33l.1.01.07.04.03.06zM4.2.6l-.71 2.05h1.43ZM8.72.29v.1q-.01.05-.03.07T8.65.5l-.04.01H7.45v3.57l-.01.05-.04.03-.09.01-.13.01h-.13l-.09-.02-.04-.03-.01-.05V.51H5.7L5.67.45 5.65.4V.2q0-.06.02-.09L5.7.06h2.95L8.7.1q.02.03.02.08zm3.2 3.3v.08l-.01.07q0 .03-.02.05l-.04.05-.14.1-.25.13q-.15.06-.35.1t-.42.04q-.4 0-.73-.13t-.55-.4q-.23-.25-.35-.64-.12-.38-.12-.88 0-.51.13-.91t.37-.68.57-.42.74-.15q.18 0 .35.03l.3.09q.15.05.26.12t.15.1l.06.07.02.05.01.07v.21q0 .05-.02.08l-.03.04-.04.01q-.04 0-.12-.06l-.21-.13q-.12-.08-.3-.14t-.43-.06q-.28 0-.5.1-.23.12-.38.33-.16.21-.25.52-.09.3-.09.7t.08.7.25.5q.15.2.38.3t.52.1q.25 0 .43-.06t.3-.13l.22-.14q.08-.06.13-.06l.04.01q.02 0 .03.04v.07zm3.7.5-.02.04-.05.03-.08.01-.13.01h-.13l-.09-.02-.04-.03-.01-.05V2.26H13.2v1.82q0 .03-.02.05l-.04.03-.09.01-.13.01h-.13l-.08-.02-.05-.03-.01-.05V.13l.01-.04q.01-.02.05-.03l.08-.02h.26q.06 0 .09.02l.04.03.02.04v1.65h1.87V.13l.01-.04.04-.03.09-.02h.26q.05 0 .08.02.04.01.05.03l.01.04z" aria-label="PATCH" font-size="6.51" font-family="Calibri"/></svg>