<svg viewBox="0 0 13.229 4.233" xmlns="http://www.w3.org/2000/svg"><path style="line-height:1.25;-inkscape-font-specification:Calibri" d="M2.527 1.265q0 .308-.102.556t-.292.423q-.188.175-.464.27-.274.095-.655.095H.547V4.09q0 .026-.016.045-.013.019-.045.032-.028.01-.082.015-.051.01-.13.01t-.134-.01q-.051-.006-.083-.015-.032-.013-.044-.032Q0 4.115 0 4.09V.296Q0 .168.067.114.133.06.217.06h.88q.133 0 .254.013.124.01.289.048.168.035.34.136.175.099.296.245.12.146.184.34.067.19.067.423m-.576.044q0-.25-.095-.42-.092-.168-.232-.25-.137-.083-.286-.105-.146-.022-.286-.022H.547v1.65h.492q.248 0 .41-.064.166-.064.277-.175.111-.115.168-.27.057-.16.057-.344m4.857.76q0 .499-.118.9-.118.4-.353.683-.232.28-.584.432-.353.15-.824.15-.464 0-.804-.137-.337-.14-.56-.404-.218-.264-.326-.655-.108-.39-.108-.9 0-.485.117-.883.118-.397.353-.673.235-.28.588-.43Q4.542 0 5.012 0q.454 0 .791.137.337.136.56.4.225.26.333.648.112.385.112.884m-.576.038q0-.35-.063-.648-.06-.302-.207-.521Q5.82.715 5.578.59T4.98.467t-.597.134q-.242.133-.394.356-.15.222-.217.52-.063.296-.063.624 0 .362.06.667t.204.528q.143.22.381.343.242.12.604.12.36 0 .604-.133.245-.133.394-.359.15-.229.213-.527.063-.3.063-.633m3.649.912q0 .29-.108.515-.105.226-.296.385-.187.155-.445.235-.254.08-.55.08-.206 0-.384-.036-.175-.035-.315-.085-.136-.051-.232-.105-.092-.054-.13-.092-.035-.039-.054-.096-.016-.06-.016-.159 0-.07.006-.114.007-.048.02-.076.012-.029.031-.039.02-.012.045-.012.044 0 .124.054.082.054.21.117.127.064.305.121.18.054.416.054.178 0 .324-.048.15-.047.254-.133.108-.089.166-.216.057-.127.057-.29 0-.174-.08-.298-.079-.124-.21-.216-.13-.096-.298-.172-.165-.08-.34-.159-.175-.082-.34-.18-.165-.1-.296-.233t-.213-.311q-.08-.182-.08-.433 0-.257.093-.457.095-.204.26-.34.17-.137.398-.207Q8.435 0 8.702 0q.137 0 .273.025.14.023.26.064.125.038.22.089.095.048.124.08.032.028.041.047.01.016.016.045.007.025.01.063t.003.099q0 .057-.006.101-.004.045-.013.077-.01.028-.029.044-.016.013-.038.013-.035 0-.111-.045Q9.379.658 9.27.604 9.163.547 9.013.502q-.146-.048-.33-.048-.172 0-.299.048-.127.045-.21.12Q8.092.7 8.05.805t-.041.223q0 .171.08.295.079.124.21.22.133.095.301.174l.343.162q.175.08.344.178.168.096.298.23.134.13.213.31.083.179.083.423M13.196.296q0 .06-.007.104-.006.045-.022.074-.013.025-.035.038-.019.012-.044.012H11.93V4.09q0 .026-.013.045t-.044.032q-.032.01-.086.015-.051.01-.13.01-.077 0-.13-.01-.055-.006-.087-.015-.031-.013-.044-.032t-.013-.045V.524h-1.157q-.025 0-.047-.012-.02-.013-.032-.038-.013-.03-.022-.074-.007-.044-.007-.104t.007-.105q.01-.048.022-.077.013-.028.032-.04.022-.014.047-.014h2.86q.026 0 .045.013.022.013.035.041.016.029.022.077.007.044.007.105" aria-label="POST" font-size="6.509" font-family="Calibri"/></svg>