<svg viewBox="0 0 14.29 4.23" xmlns="http://www.w3.org/2000/svg"><path style="line-height:1.25;-inkscape-font-specification:Calibri" d="m2.96 4.05-.01.04-.05.04-.08.01-.13.01h-.13l-.08-.02-.05-.04-.01-.04V2.22H.55v1.83l-.02.04q0 .02-.04.04l-.09.01-.13.01H.14l-.08-.02L0 4.09V.1L.01.06.06.03.14 0h.13L.4.01q.06 0 .1.02.03 0 .04.03L.55.1v1.65h1.87V.1l.01-.04q.01-.02.05-.03L2.56 0h.13l.13.01q.05 0 .08.02.04 0 .05.03l.01.04zm3.38-.14V4q0 .04-.02.07l-.04.04-.05.01H4.26q-.07 0-.14-.05-.06-.05-.06-.17V.24q0-.12.06-.17.07-.05.14-.05H6.2l.04.01q.03.01.04.04l.02.08v.2q0 .04-.02.07-.01.03-.04.04L6.2.47H4.6v1.3h1.37l.05.01.03.04q.02.02.02.07v.2q0 .04-.02.07l-.03.04H4.6v1.48h1.63l.05.01.04.04.02.07zm3.9.03q.03.07.03.11t-.02.07q-.03.02-.09.02l-.16.01h-.15q-.06 0-.1-.02l-.04-.03-.02-.05-.36-1h-1.7l-.34.99-.03.05-.05.04-.08.01-.14.01h-.16l-.08-.04q-.02-.02-.02-.06 0-.05.03-.12L8.14.11q0-.03.03-.05t.06-.04l.1-.01.16-.01h.17l.1.02q.05.01.07.04l.03.06zM8.47.57l-.7 2.05h1.42ZM14.1 2q0 .54-.13.94-.14.4-.4.66-.27.26-.65.4-.38.12-.9.12h-.88q-.07 0-.14-.05-.06-.05-.06-.17V.24q0-.12.06-.17.07-.05.14-.05h.93q.54 0 .9.14.38.14.62.4.25.25.38.62t.13.83m-.57.03q0-.34-.09-.62-.08-.3-.26-.5t-.44-.33-.7-.12h-.55v3.2h.56q.4 0 .66-.1.27-.1.45-.3.19-.2.27-.5.1-.31.1-.73" aria-label="HEAD" font-size="6.51" font-family="Calibri"/></svg>