<svg viewBox="0 0 10.319 4.233" xmlns="http://www.w3.org/2000/svg"><path style="line-height:1.25;-inkscape-font-specification:Calibri" d="M2.527 1.224q0 .308-.102.556t-.292.422q-.188.175-.464.27-.274.096-.655.096H.547v1.481q0 .025-.016.044-.013.02-.045.032-.028.01-.082.016-.051.01-.13.01T.14 4.14q-.051-.006-.083-.016-.032-.012-.044-.032Q0 4.074 0 4.05V.254q0-.127.067-.18.066-.055.15-.055h.88q.133 0 .254.013.124.01.289.047.168.035.34.137.175.099.296.245.12.146.184.34.067.19.067.423m-.576.044q0-.251-.095-.42-.092-.168-.232-.25-.137-.083-.286-.105Q1.192.47 1.052.47H.547v1.65h.492q.248 0 .41-.064.166-.063.277-.175.111-.114.168-.27.057-.159.057-.343m4.504 1.344q0 .375-.111.671-.108.292-.312.496-.203.203-.496.308-.292.105-.664.105-.34 0-.62-.099-.28-.098-.48-.289-.2-.194-.308-.483t-.108-.667V.102q0-.026.013-.045T3.413.03q.032-.013.083-.02.05-.01.133-.01.077 0 .13.01.055.006.083.019.032.01.045.028.013.02.013.045v2.485q0 .286.07.499t.2.356q.133.14.318.213.187.07.42.07.237 0 .422-.07.187-.07.314-.21.13-.14.197-.346.07-.207.07-.483V.102q0-.026.013-.045T5.97.03Q6 .016 6.05.009 6.105 0 6.185 0q.076 0 .127.01.054.006.082.019.032.01.045.028.016.02.016.045zM10.116.254q0 .06-.006.105-.007.045-.023.073-.012.026-.034.038-.02.013-.045.013H8.851V4.05q0 .025-.012.044-.013.02-.045.032-.032.01-.086.016-.05.01-.13.01-.076 0-.13-.01-.054-.006-.086-.016-.032-.012-.045-.032-.012-.019-.012-.044V.483H7.148Q7.122.483 7.1.47 7.081.458 7.068.432 7.056.404 7.046.36 7.04.315 7.04.254q0-.06.006-.105.01-.047.022-.076.013-.029.032-.041.022-.013.048-.013h2.86q.026 0 .045.013.022.012.035.041.015.029.022.076.006.045.006.105" aria-label="PUT" font-size="6.509" font-family="Calibri"/></svg>