<svg viewBox="0 0 128 128" xml:space="preserve" xmlns="http://www.w3.org/2000/svg"><ellipse cx="64" cy="68" rx="60" ry="51" fill="#d91c00"/><ellipse cx="21" cy="57" rx="8" ry="12" transform="rotate(34 21 57)" fill="#eb5637"/><path d="M99 27q9 14 10 31c0 29-25 54-58 60l13 1c33 0 60-23 60-51q-1-26-25-41" fill="#ca1700"/><path d="M106 32q17 14 18 36c0 28-27 51-60 51S4 96 4 68q1-22 18-36" fill="none" stroke="#31352e" stroke-width="6" stroke-linecap="round" stroke-linejoin="round" stroke-miterlimit="10"/><path d="M64 17s30-10 45 12c0 0-9 7-26 1 0 0 11 9 9 20 0 0-19 4-28-9-9 13-28 9-28 9-1-11 10-20 10-20-14 7-27-2-27-2C35 7 64 17 64 17" fill="#71ba38"/><path d="M59 16c-9-2-28-4-40 12 0 0 13 9 27 2 0 0-11 9-10 20 0 0 17 4 26-6l3-5q4-12-6-23" fill="#91cc52"/><path d="M69 16q22 4 31 16l9-3C98 12 79 14 69 16" fill="#6e9e43"/><path d="M64 17s30-10 45 12c0 0-6 5-23 3 0 0 7 9 6 18 0 0-19 4-28-9-9 13-28 9-28 9 1-11 7-18 7-18-16 3-24-4-24-4 10-14 26-13 36-13" fill="none" stroke="#31352e" stroke-width="6" stroke-linecap="round" stroke-miterlimit="10"/><path fill="#d13834" stroke="#31352e" stroke-width="6" stroke-linecap="round" stroke-miterlimit="10" d="M64 24V7"/><path d="M106 48c0-18-20-32-44-32" fill="none"/></svg>